<svg width="793" height="1453" viewBox="0 0 793 1453" fill="none" xmlns="http://www.w3.org/2000/svg">
<path d="M275.633 1041.61C276.935 964.135 285.724 902.938 302 858.016C318.276 813.094 351.479 763.289 401.609 708.602L529.539 576.766C584.227 514.917 611.57 448.51 611.57 377.547C611.57 309.188 593.667 255.802 557.859 217.391C522.052 178.328 469.969 158.797 401.609 158.797C335.203 158.797 281.818 176.375 241.453 211.531C201.089 246.688 180.906 293.888 180.906 353.133H0.242188C1.54427 247.664 38.9792 162.703 112.547 98.25C186.766 33.1458 283.12 0.59375 401.609 0.59375C524.656 0.59375 620.359 33.7969 688.719 100.203C757.729 165.958 792.234 256.453 792.234 371.688C792.234 485.62 739.5 597.924 634.031 708.602L527.586 814.07C480.06 866.805 456.297 942.651 456.297 1041.61H275.633ZM267.82 1351.18C267.82 1321.88 276.609 1297.47 294.188 1277.94C312.417 1257.76 339.109 1247.66 374.266 1247.66C409.422 1247.66 436.115 1257.76 454.344 1277.94C472.573 1297.47 481.688 1321.88 481.688 1351.18C481.688 1380.48 472.573 1404.89 454.344 1424.42C436.115 1443.3 409.422 1452.74 374.266 1452.74C339.109 1452.74 312.417 1443.3 294.188 1424.42C276.609 1404.89 267.82 1380.48 267.82 1351.18Z" fill="white"/>
</svg>
